<?xml version="1.0" encoding="utf-8"?>
<!-- Generator: Adobe Illustrator 20.0.0, SVG Export Plug-In . SVG Version: 6.00 Build 0)  -->
<svg version="1.1" id="Layer_1" xmlns="http://www.w3.org/2000/svg" xmlns:xlink="http://www.w3.org/1999/xlink" x="0px" y="0px"
	 viewBox="0 0 50 50" style="enable-background:new 0 0 50 50;" xml:space="preserve">
<style type="text/css">
	.st0{fill:#010101;}
</style>
<path class="st0" d="M11.1,35.7c-1.7,0.4-3.9,0.1-5.4-0.7c-3.8-2.2-5.6-5.8-4.7-10.4c0.8-3.9,4.2-5.5,7.7-3.6c4,2.3,5,5.9,5,10.2
	C13.8,33.3,13.1,35.2,11.1,35.7z M21.2,21c-2.6,2.1-5.6,1.6-7.7-1.1c-2.6-3.3-3.3-6.8-2.2-10.7c0.6-2.2,2.1-3.7,4.2-4.3
	c2.3-0.7,3.8,0.8,5.3,2.2c2.1,2.1,2.6,4.8,2.6,7.7C23.5,17.2,23.3,19.4,21.2,21z M17.1,38.3c2.6-1,3.2-3.1,3.9-5.1
	c0.6-1.6,0.5-3.4,1.3-4.8c0.8-1.4,2.1-3,3.6-3.6c1.8-0.8,4.2-0.4,5.3,1.4c1.8,3.1,4.6,4.7,7.9,5.8c2.7,0.9,3.8,2.7,3.4,4.8
	c-0.6,3-2.8,4.3-5.3,3.7c-2.9-0.7-4.9,0.1-7,1.8c-0.7,0.6-2.5,0.4-3.6,0.1c-3-0.9-4.4-0.2-5.5,2.8c-1.1,3.1-4.7,4.1-6.5,1.8
	c-0.6-0.7-0.7-1.8-0.9-2.1C13.5,41.5,14.8,39.2,17.1,38.3z M37.1,10.8c-0.3,2.5-2.6,5.3-4.8,6c-3,1.1-4.8-0.6-5.5-3.6
	c-0.9-3.1-0.4-6.2,1.4-8.9c0.9-1.4,3-3.3,3.8-3.1C34.1,1.5,37.5,6.6,37.1,10.8z M38.6,22.7c0.6-2.1,1.5-4.2,2.6-6
	c1.1-1.6,2.8-2.7,4.8-2.3c0.9,0.1,1.8,0.6,2.2,1.2c2.4,4,0.9,10.2-2.9,12.6c-0.6,0.4-1.6,0.4-2.5,0.6C40.2,28.6,37.9,25.6,38.6,22.7
	z"/>
</svg>
